<svg xmlns="http://www.w3.org/2000/svg" viewBox="0 0 200 200">
  <rect width="200" height="200" rx="16" fill="#f0f4ff"/>
  <path d="M35 95 Q35 75 65 75 L135 75 Q165 75 165 95 Q165 115 135 115 L65 115 Q35 115 35 95 Z" fill="#1a1a2e"/>
  <path d="M42 95 Q42 82 65 82 L135 82 Q158 82 158 95 Q158 108 135 108 L65 108 Q42 108 42 95 Z" fill="none" stroke="#4a9eff" stroke-width="1" opacity="0.3"/>
  <ellipse cx="80" cy="95" rx="22" ry="16" fill="#4a9eff" opacity="0.15"/>
  <ellipse cx="120" cy="95" rx="22" ry="16" fill="#4a9eff" opacity="0.15"/>
  <line x1="40" y1="82" x2="55" y2="60" stroke="#1a1a2e" stroke-width="3" stroke-linecap="round"/>
  <line x1="160" y1="82" x2="145" y2="60" stroke="#1a1a2e" stroke-width="3" stroke-linecap="round"/>
</svg>