<svg xmlns="http://www.w3.org/2000/svg" viewBox="0 0 200 200">
  <rect width="200" height="200" rx="16" fill="#f0f4ff"/>
  <path d="M55 90 Q55 60 75 60 L85 60 Q95 60 95 80 L95 145 Q95 155 85 155 L75 155 Q55 155 55 135 Z" fill="#D2691E"/>
  <path d="M60 95 Q60 70 75 70 L82 70 Q90 70 90 85 L90 140 Q90 148 82 148 L75 148 Q60 148 60 135 Z" fill="#E8C88A"/>
  <ellipse cx="75" cy="130" rx="8" ry="3" fill="#2ecc71" opacity="0.4"/>
  <path d="M120 100 Q120 65 140 65 L148 65 Q160 65 160 90 L160 150 Q160 160 148 160 L140 160 Q120 160 120 140 Z" fill="#4a9eff" opacity="0.7"/>
  <path d="M125 105 Q125 75 140 75 L145 75 Q155 75 155 95 L155 148 Q155 155 145 155 L140 155 Q125 155 125 140 Z" fill="#88c8ff"/>
</svg>