<svg xmlns="http://www.w3.org/2000/svg" viewBox="0 0 200 200">
  <rect width="200" height="200" rx="16" fill="#f0f4ff"/>
  <path d="M50 130 Q50 110 70 105 L80 100 Q100 90 120 100 L130 105 Q150 110 150 130 L150 140 Q150 150 140 150 L60 150 Q50 150 50 140 Z" fill="#1a1a2e"/>
  <path d="M55 130 Q55 115 72 110 L80 106 Q100 96 120 106 L128 110 Q145 115 145 130" fill="#e94560"/>
  <rect x="55" y="140" width="90" height="12" rx="4" fill="#f5f5f5"/>
  <path d="M80 150 Q80 160 90 160 L110 160 Q120 160 120 150" fill="#f5f5f5"/>
</svg>