<svg xmlns="http://www.w3.org/2000/svg" viewBox="0 0 200 200">
  <rect width="200" height="200" rx="16" fill="#f0f4ff"/>
  <rect x="45" y="45" width="110" height="120" rx="4" fill="#D4A76A"/>
  <g fill="#E8C88A">
    <rect x="50" y="50" width="22" height="25" rx="2"/><rect x="76" y="50" width="22" height="25" rx="2"/>
    <rect x="102" y="50" width="22" height="25" rx="2"/><rect x="128" y="50" width="22" height="25" rx="2"/>
    <rect x="50" y="80" width="22" height="25" rx="2"/><rect x="76" y="80" width="22" height="25" rx="2"/>
    <rect x="102" y="80" width="22" height="25" rx="2"/><rect x="128" y="80" width="22" height="25" rx="2"/>
    <rect x="50" y="110" width="22" height="25" rx="2"/><rect x="76" y="110" width="22" height="25" rx="2"/>
    <rect x="102" y="110" width="22" height="25" rx="2"/><rect x="128" y="110" width="22" height="25" rx="2"/>
  </g>
  <circle cx="61" y="62" r="3" fill="#e94560" opacity="0.6"/>
  <circle cx="87" cy="92" r="3" fill="#2ecc71" opacity="0.6"/>
  <circle cx="139" cy="122" r="3" fill="#f0a500" opacity="0.6"/>
</svg>